# xmcd
#
# Track frame offsets: 
#        150
#        13408
#        30637
#        46745
#        63227
#        75737
#        89482
#        107148
#        122256
#        135140
#        150338
#
# Disc length: 2159 seconds
#
# Revision: 0
# Processed by: cddbd v1.5.1PL0 Copyright (c) Steve Scherf et al.
# Submitted via: ExactAudioCopy v0.95a4
#
DISCID=79086d0b
DTITLE=Neko Case and Her Boyfriends - John Peel Show, Maida Vale studi
DTITLE=os
DYEAR=2000
DGENRE=Country
TTITLE0=Set Out Running
TTITLE1=Make Your Bed
TTITLE2=Gold and Silver
TTITLE3=Favorite
TTITLE4=Twist the Knife
TTITLE5=Bought and Sold
TTITLE6=Furnace Room Lullaby
TTITLE7=I'll Be Around
TTITLE8=Runnin' Out of Fools
TTITLE9=Lord, Don't Move the Mountain
TTITLE10=Bowling Green
EXTD=
EXTT0=
EXTT1=
EXTT2=
EXTT3=
EXTT4=
EXTT5=
EXTT6=
EXTT7=
EXTT8=
EXTT9=
EXTT10=
PLAYORDER=
